<svg>
    <symbol id="icon-arrow-right" viewBox="0 0 700 700" xmlns="http://www.w3.org/2000/svg">
        <path fill-rule="evenodd" fill="currentColor"
              d="M447.11 89.039a19.874 19.874 0 0 0-14.371-7.125 19.876 19.876 0 0 0-13.629 35.125l142.86 143.02H89.78a19.94 19.94 0 0 0-16.383 29.57 19.927 19.927 0 0 0 16.383 10.246h472.19l-143.08 142.86a20.272 20.272 0 0 0 0 28c3.711 3.722 8.746 5.812 14 5.812s10.293-2.09 14-5.812l176.96-176.96v.004a19.426 19.426 0 0 0 0-28z"/>
    </symbol>
    <symbol id="icon-setting" viewBox="0 0 24 24" xmlns="http://www.w3.org/2000/svg">
        <path d="M16 12c0-1.104-.449-2.106-1.172-2.828a3.994 3.994 0 0 0-5.656 0 3.994 3.994 0 0 0 0 5.656 3.994 3.994 0 0 0 5.656 0A3.994 3.994 0 0 0 16 12zm-2 0c0 .553-.223 1.051-.586 1.414S12.553 14 12 14s-1.051-.223-1.414-.586S10 12.553 10 12s.223-1.051.586-1.414S11.447 10 12 10s1.051.223 1.414.586S14 11.447 14 12zm6.315 3.404a.687.687 0 0 1 .192-.257.637.637 0 0 1 .403-.147H21a2.997 2.997 0 0 0 2.121-5.121A2.997 2.997 0 0 0 21 9h-.159a.684.684 0 0 1-.308-.076.64.64 0 0 1-.292-.312.87.87 0 0 1-.004-.089.685.685 0 0 1-.049-.168c.02-.334.077-.454.168-.547l.062-.062a2.997 2.997 0 0 0-2.126-5.121 2.995 2.995 0 0 0-2.12.879l-.046.046a.688.688 0 0 1-.288.166.68.68 0 0 1-.691-.223A.637.637 0 0 1 15 3.09V3A2.997 2.997 0 0 0 9.879.879 2.997 2.997 0 0 0 9 3v.159a.684.684 0 0 1-.076.308.64.64 0 0 1-.312.292.87.87 0 0 1-.089.004.685.685 0 0 1-.168.049c-.335-.021-.455-.078-.548-.169l-.062-.062a2.996 2.996 0 0 0-4.244.004 2.996 2.996 0 0 0 .001 4.242l.048.047c.08.083.136.183.166.288a.64.64 0 0 1-.031.434.947.947 0 0 1-.021.052.682.682 0 0 1-.191.275.625.625 0 0 1-.383.156H3a3 3 0 1 0 0 6.001h.159c.11.001.215.028.308.076a.642.642 0 0 1 .296.321c.024.055.04.111.049.168-.02.334-.077.454-.168.547l-.062.062a2.997 2.997 0 0 0 2.126 5.121 2.995 2.995 0 0 0 2.12-.879l.047-.048a.688.688 0 0 1 .288-.166.64.64 0 0 1 .434.031.947.947 0 0 1 .052.021.682.682 0 0 1 .275.191c.095.11.153.25.156.383V21a2.997 2.997 0 0 0 5.121 2.121A2.997 2.997 0 0 0 15.08 21v-.159a.684.684 0 0 1 .076-.308.642.642 0 0 1 .321-.296.685.685 0 0 1 .168-.049c.334.02.454.077.547.168l.062.062a2.997 2.997 0 0 0 5.121-2.126 2.995 2.995 0 0 0-.879-2.12l-.048-.047a.688.688 0 0 1-.166-.288.64.64 0 0 1 .031-.434zm-1.919-6.102a1.014 1.014 0 0 0-.076-.382V9c0 .043.003.084.008.125.021.06.043.119.068.177l.005.092c.249.581.684 1.03 1.208 1.303A2.69 2.69 0 0 0 20.82 11H21c.276 0 .525.111.707.293S22 11.724 22 12s-.111.525-.293.707S21.276 13 21 13h-.09a2.643 2.643 0 0 0-1.675.603 2.68 2.68 0 0 0-.75.993 2.633 2.633 0 0 0-.127 1.782c.119.423.341.814.652 1.136l.072.073c.196.196.294.45.294.707s-.097.512-.292.707c-.197.197-.451.295-.709.295s-.512-.097-.707-.292l-.061-.061a2.64 2.64 0 0 0-1.632-.752 2.685 2.685 0 0 0-1.293.212 2.639 2.639 0 0 0-1.3 1.206 2.69 2.69 0 0 0-.303 1.211v.181a.994.994 0 0 1-.999.999c-.276 0-.525-.111-.707-.293s-.293-.431-.293-.707v-.09a2.653 2.653 0 0 0-1.702-2.436 2.634 2.634 0 0 0-1.756-.116 2.678 2.678 0 0 0-1.136.652l-.073.072c-.196.196-.45.294-.707.294s-.512-.097-.707-.292c-.197-.197-.295-.451-.295-.709s.097-.512.292-.707l.061-.061a2.64 2.64 0 0 0 .752-1.632 2.685 2.685 0 0 0-.212-1.293 2.639 2.639 0 0 0-1.206-1.3 2.69 2.69 0 0 0-1.211-.303L3 13.08c-.276 0-.525-.111-.707-.293S2 12.356 2 12.08s.111-.525.293-.707.431-.293.707-.293h.09a2.653 2.653 0 0 0 2.436-1.702 2.634 2.634 0 0 0 .116-1.756 2.678 2.678 0 0 0-.652-1.136l-.073-.073c-.196-.196-.294-.45-.294-.707s.097-.512.292-.707c.197-.197.451-.295.709-.295s.512.097.707.292l.061.061a2.64 2.64 0 0 0 1.632.752c.37.032.745-.014 1.101-.137a.93.93 0 0 0 .266-.072l-.089.004a1.014 1.014 0 0 0-.382.076H9c.043 0 .084-.003.125-.008.06-.021.119-.043.177-.068l.092-.005a2.636 2.636 0 0 0 1.303-1.208c.193-.37.298-.785.303-1.21V3c0-.276.111-.525.293-.707S11.724 2 12 2s.525.111.707.293S13 2.724 13 3v.09c.003.637.228 1.22.603 1.675.266.323.607.581.996.751a2.632 2.632 0 0 0 1.778.125 2.678 2.678 0 0 0 1.136-.652l.073-.072c.196-.196.45-.294.707-.294s.512.097.707.292c.197.197.295.451.295.709s-.097.512-.292.707l-.061.061a2.64 2.64 0 0 0-.752 1.632c-.032.37.014.745.137 1.101a.983.983 0 0 0 .072.266 2.159 2.159 0 0 0-.004-.089z"/>
    </symbol>
    <symbol id="icon-success" fill="none" viewBox="0 0 44 44" xmlns="http://www.w3.org/2000/svg">
        <circle cx="22" cy="22" r="22" fill="#5BC595"/>
        <path d="M14 22.5l5 5.5 12.5-12.5" stroke="#D6F0E4" stroke-width="4" stroke-linecap="round"/>
    </symbol>
    <symbol id="icon-close" viewBox="0 0 24 24" xmlns="http://www.w3.org/2000/svg">
        <path
                d="M18.984 6.422L13.406 12l5.578 5.578-1.406 1.406L12 13.406l-5.578 5.578-1.406-1.406L10.594 12 5.016 6.422l1.406-1.406L12 10.594l5.578-5.578z"/>
    </symbol>
    <symbol id="icon-search" viewBox="0 0 18 18" fill="none" xmlns="http://www.w3.org/2000/svg">
        <path
                d="M14.026 12.848l3.569 3.568-1.18 1.18-3.567-3.57a7.466 7.466 0 0 1-4.681 1.64c-4.14 0-7.5-3.36-7.5-7.5 0-4.14 3.36-7.5 7.5-7.5 4.14 0 7.5 3.36 7.5 7.5a7.467 7.467 0 0 1-1.641 4.682zm-1.672-.619A5.814 5.814 0 0 0 14 8.167a5.832 5.832 0 0 0-5.833-5.834 5.831 5.831 0 0 0-5.834 5.834A5.832 5.832 0 0 0 8.167 14a5.814 5.814 0 0 0 4.062-1.646l.125-.125z"
                fill="currentColor"/>
    </symbol>
    <symbol id="icon-plus" viewBox="0 0 14 15" xmlns="http://www.w3.org/2000/svg">
        <path d="M6.167.833h1.666v13.334H6.167V.833z"/>
        <path fill-rule="evenodd" clip-rule="evenodd" d="M.333 8.334V6.667h13.334v1.667H.333z"/>
    </symbol>
    <symbol id="icon-done" viewBox="0 0 14 12" xmlns="http://www.w3.org/2000/svg">
        <path d="M4.932 9.164L12.596 0 14 1.387 5.124 12 0 7.488l1.2-1.61 3.732 3.286z"/>
    </symbol>
    <symbol id="icon-user" fill="none" viewBox="0 0 10 12" xmlns="http://www.w3.org/2000/svg">
        <path
                d="M0 12c0-1.212.527-2.375 1.464-3.232.938-.858 2.21-1.34 3.536-1.34s2.598.482 3.536 1.34C9.473 9.625 10 10.788 10 12H8.75c0-.91-.395-1.781-1.098-2.424C6.948 8.933 5.995 8.57 5 8.57c-.995 0-1.948.362-2.652 1.005C1.645 10.219 1.25 11.09 1.25 12H0zm5-5.143c-2.072 0-3.75-1.534-3.75-3.428C1.25 1.534 2.928 0 5 0s3.75 1.534 3.75 3.429c0 1.894-1.678 3.428-3.75 3.428zm0-1.143c1.381 0 2.5-1.023 2.5-2.285 0-1.263-1.119-2.286-2.5-2.286S2.5 2.166 2.5 3.429C2.5 4.69 3.619 5.714 5 5.714z"
                fill="currentColor"/>
    </symbol>

    <symbol id="icon-caret-down" viewBox="0 0 8 4" xmlns="http://www.w3.org/2000/svg">
        <path d="M4 4L0 0h8L4 4z"/>
    </symbol>
    <symbol id="icon-report" fill="none" viewBox="0 0 14 18" xmlns="http://www.w3.org/2000/svg">
        <path
                d="M10.889 1.455h2.333c.207 0 .404.076.55.213a.704.704 0 0 1 .228.514v15.09a.704.704 0 0 1-.228.515.806.806 0 0 1-.55.213H.778a.806.806 0 0 1-.55-.213.704.704 0 0 1-.228-.514V2.182c0-.193.082-.378.228-.514a.806.806 0 0 1 .55-.213H3.11V0h1.556v1.455h4.666V0h1.556v1.455zm0 1.454v1.455H9.333V2.909H4.667v1.455H3.11V2.909H1.556v13.637h10.888V2.909H10.89zM3.11 7.82h7.778v1.454H3.11V7.818zm0 3.908h7.778v1.455H3.11v-1.455z"
                fill="currentColor"/>
    </symbol>
    <symbol id="icon-menu" viewBox="0 0 24 24" xmlns="http://www.w3.org/2000/svg">
        <path fill="none" d="M0 0h24v24H0z"/>
        <path d="M3 4h18v2H3V4zm0 7h18v2H3v-2zm0 7h18v2H3v-2z"/>
    </symbol>
    <symbol id="icon-date" fill="none" viewBox="0 0 16 16" xmlns="http://www.w3.org/2000/svg">
        <path
                d="M12 1.6h3.2a.8.8 0 0 1 .8.8v12.8a.8.8 0 0 1-.8.8H.8a.8.8 0 0 1-.8-.8V2.4a.8.8 0 0 1 .8-.8H4V0h1.6v1.6h4.8V0H12v1.6zm2.4 4.8V3.2H12v1.6h-1.6V3.2H5.6v1.6H4V3.2H1.6v3.2h12.8zm0 1.6H1.6v6.4h12.8V8zM3.2 9.6h4v3.2h-4V9.6z"
                fill="currentColor"/>
    </symbol>
    <symbol id="icon-view" fill="none" viewBox="0 0 13 8" xmlns="http://www.w3.org/2000/svg">
        <path
                d="M12.484 3.756C12.372 3.602 9.698 0 6.282 0S.192 3.602.08 3.756a.414.414 0 0 0 0 .488C.192 4.398 2.866 8 6.282 8s6.09-3.603 6.202-3.756a.414.414 0 0 0 0-.488zM6.282 7.172C3.766 7.172 1.587 4.782.942 4 1.586 3.217 3.76.828 6.282.828c2.516 0 4.695 2.39 5.34 3.172-.644.783-2.819 3.172-5.34 3.172z"
                fill="currentColor"/>
        <path d="M6.3 2c-1.103 0-2 .897-2 2s.897 2 2 2 2-.897 2-2-.897-2-2-2z" fill="currentColor"/>
    </symbol>
    <symbol id="icon-download" viewBox="0 0 24 24" xmlns="http://www.w3.org/2000/svg">
        <path fill="none" d="M0 0h24v24H0z"/>
        <path d="M3 19h18v2H3v-2zm10-5.828L19.071 7.1l1.414 1.414L12 17 3.515 8.515 4.929 7.1 11 13.17V2h2v11.172z"/>
    </symbol>

    <symbol id="icon-delete" fill="none" viewBox="0 0 14 14" xmlns="http://www.w3.org/2000/svg">
        <path
                d="M3.5 1.4V0h7v1.4H14v1.4h-1.4v10.5a.7.7 0 0 1-.7.7H2.1a.7.7 0 0 1-.7-.7V2.8H0V1.4h3.5zm-.7 1.4v9.8h8.4V2.8H2.8zm2.1 2.1h1.4v5.6H4.9V4.9zm2.8 0h1.4v5.6H7.7V4.9z"
                fill="currentColor"/>
    </symbol>
    <symbol id="icon-print" fill="none" viewBox="0 0 16 16" xmlns="http://www.w3.org/2000/svg">
        <path fill-rule="evenodd" clip-rule="evenodd"
              d="M15.013 3.6h-1.779V1a.994.994 0 0 0-.987-1H3.753a.994.994 0 0 0-.987 1v2.6H.987A.994.994 0 0 0 0 4.6v5.8a.994.994 0 0 0 .987 1h1.779V15a.994.994 0 0 0 .987 1h8.494a.994.994 0 0 0 .987-1v-3.6h1.779a.994.994 0 0 0 .987-1V4.6a.994.994 0 0 0-.987-1zM3.95 1.2h8.1v2.4h-8.1V1.2zm8.1 13.6h-8.1V9.6h8.1v5.2zm2.765-4.6h-1.58V8.4H2.764v1.8h-1.58V4.8h13.63v5.4zm-3.128-3.734a.365.365 0 0 0 .335-.505.366.366 0 0 0-.335-.227.365.365 0 0 0-.362.365c0 .204.162.367.362.367zm1.547.284a.546.546 0 0 0 .544-.55.547.547 0 0 0-.544-.55.546.546 0 0 0-.543.549c0 .305.244.55.543.55zM5.728 13.8h2.57a.596.596 0 0 0 .592-.6.597.597 0 0 0-.593-.6H5.728a.597.597 0 0 0-.592.6c0 .331.265.6.592.6zm0-2h4.544a.597.597 0 0 0 .592-.6.596.596 0 0 0-.592-.6H5.728a.597.597 0 0 0-.592.6c0 .331.265.6.592.6z"
              fill="currentColor"/>
    </symbol>
    <symbol id="icon-filter" fill="none" viewBox="0 0 14 14" xmlns="http://www.w3.org/2000/svg">
        <path
                d="M3.113 11a2 2 0 0 1 3.774 0h6.78v1.333h-6.78a2.001 2.001 0 0 1-3.774 0H.333V11h2.78zm4-4.667a2 2 0 0 1 3.774 0h2.78v1.334h-2.78a2 2 0 0 1-3.774 0H.333V6.333h6.78zm-4-4.666a2 2 0 0 1 3.774 0h6.78V3h-6.78a2 2 0 0 1-3.774 0H.333V1.667h2.78zM5 3a.667.667 0 1 0 0-1.333A.667.667 0 0 0 5 3zm4 4.667a.667.667 0 1 0 0-1.334.667.667 0 0 0 0 1.334zm-4 4.666A.667.667 0 1 0 5 11a.667.667 0 0 0 0 1.333z"
                fill="currentColor"/>
    </symbol>
    <symbol id="icon-pdf" fill="none" viewBox="0 0 10 12" xmlns="http://www.w3.org/2000/svg">
        <path
                d="M9.444 12H.556a.536.536 0 0 1-.393-.176A.626.626 0 0 1 0 11.4V.6C0 .44.059.288.163.176A.536.536 0 0 1 .556 0h8.888c.148 0 .29.063.393.176A.625.625 0 0 1 10 .6v10.8c0 .16-.059.312-.163.424a.536.536 0 0 1-.393.176zm-.555-1.2V1.2H1.11v9.6H8.89zM2.222 2.4h2.222v2.4H2.222V2.4zm0 3.6h5.556v1.2H2.222V6zm0 2.4h5.556v1.2H2.222V8.4zM5.556 3h2.222v1.2H5.556V3z"
                fill="currentColor"/>
    </symbol>
    <symbol id="icon-back" fill="none" viewBox="0 0 24 12" xmlns="http://www.w3.org/2000/svg">
        <path
                d="M23.063 5.063H3.207l3.29-3.273A.937.937 0 1 0 5.173.46L.276 5.336l-.001.001a.938.938 0 0 0 0 1.328l4.9 4.876a.937.937 0 1 0 1.322-1.33L3.208 6.938h19.855a.937.937 0 1 0 0-1.875z"
                fill="currentColor"/>
    </symbol>

    <symbol id="icon-date-time" fill="none" viewBox="0 0 24 24" xmlns="http://www.w3.org/2000/svg">
        <g fill="#777">
            <path d="M12.469 11.39h-.938v.938h.938v-.937z"/>
            <path
                    d="M16.594 6.938h-.563V6h-.937v.938H8.906V6H7.97v.938h-.563C6.631 6.938 6 7.567 6 8.344v8.25C6 17.369 6.63 18 7.406 18h4.823a4.135 4.135 0 0 1-.836-.938H7.406a.47.47 0 0 1-.468-.468v-6.188h10.125v.987c.353.23.67.512.937.836V8.344c0-.776-.63-1.406-1.406-1.406zm.468 2.53H6.938V8.345a.47.47 0 0 1 .47-.469h.562v.938h.937v-.938h6.188v.938h.937v-.938h.563a.47.47 0 0 1 .468.469v1.125z"/>
            <path
                    d="M14.836 11.672a3.168 3.168 0 0 0-3.164 3.164A3.168 3.168 0 0 0 14.836 18 3.168 3.168 0 0 0 18 14.836a3.168 3.168 0 0 0-3.164-3.164zm0 5.39a2.229 2.229 0 0 1-2.227-2.226c0-1.228 1-2.227 2.227-2.227 1.228 0 2.226 1 2.226 2.227a2.23 2.23 0 0 1-2.226 2.226z"/>
            <path
                    d="M15.281 13.266h-.937v2.039h1.734v-.938h-.797v-1.101zM10.594 13.266h-.938v.937h.938v-.937zM8.719 13.266H7.78v.937h.938v-.937zM8.719 11.39H7.78v.938h.938v-.937zM8.719 15.14H7.78v.938h.938v-.937zM10.594 11.39h-.938v.938h.938v-.937zM10.594 15.14h-.938v.938h.938v-.937z"/>
        </g>
        <rect x=".5" y=".5" width="23" height="23" rx="3.5" stroke="#777"/>
    </symbol>
    <symbol id="icon-email" fill="none" viewBox="0 0 14 14" xmlns="http://www.w3.org/2000/svg">
        <path
                d="M12.874 6.452a1.257 1.257 0 0 0-.584-.584l-9.485-4.59A1.257 1.257 0 0 0 1.09 2.877L2.74 7l-1.65 4.123a1.26 1.26 0 0 0 1.715 1.6l9.486-4.592a1.257 1.257 0 0 0 .583-1.68zM2.44 11.966a.419.419 0 0 1-.571-.532l1.605-4.015h8.365L2.44 11.967zM3.474 6.58L1.87 2.565a.409.409 0 0 1 .103-.46.406.406 0 0 1 .468-.071l9.4 4.546H3.473z"
                fill="#AAA"/>
        <path fill-rule="evenodd" clip-rule="evenodd"
              d="M2.914 1.053l9.485 4.59a1.508 1.508 0 0 1 0 2.713l-9.485 4.591A1.511 1.511 0 0 1 .858 11.03L2.47 7 .858 2.97a1.507 1.507 0 0 1 2.056-1.917zm-.363.757a.656.656 0 0 0-.75.112.659.659 0 0 0-.164.738l1.668 4.17h8.534l.109-.475L2.551 1.81zm.754 5.359h8.534l.11.475-9.4 4.548a.67.67 0 0 1-.912-.851l1.668-4.172z"
              fill="currentColor"/>
    </symbol>
    <symbol id="icon-info" fill="none" viewBox="0 0 14 14" xmlns="http://www.w3.org/2000/svg">
        <path d="M7 14A7 7 0 1 1 7 0a7 7 0 0 1 0 14zm-.7-7.7v4.2h1.4V6.3H6.3zm0-2.8v1.4h1.4V3.5H6.3z"
              fill="currentColor"/>
    </symbol>
    <symbol viewBox="0 0 47 48" xmlns="http://www.w3.org/2000/svg" id="icon-tel">
        <path fill-rule="evenodd" clip-rule="evenodd"
              d="M24.426 43.494C29 45.82 33.431 47 37.596 47l-.003.002c2.7 0 5.308-2.526 6.305-3.612C45.328 41.83 47 39.38 47 37.602c0-.883-.579-1.92-1.82-3.26-.927-.998-2.183-2.123-3.631-3.25-.875-.678-5.34-4.065-7.483-4.065-1.755 0-2.975 1.982-4.266 4.08l-.005.007c-.498.81-1.016 1.652-1.503 2.258-.529.658-.804.767-.853.783-5.562-2.228-12.384-9.045-14.616-14.605.02-.061.134-.336.784-.856.606-.486 1.446-1.003 2.26-1.501 2.102-1.29 4.089-2.513 4.089-4.268 0-2.14-3.389-6.604-4.068-7.478C14.76 4 13.635 2.745 12.635 1.82 11.293.579 10.258 0 9.374 0 7.596 0 5.15 1.67 3.596 3.102 2.516 4.096 0 6.702 0 9.4c0 4.162 1.18 8.59 3.504 13.162 2.145 4.216 5.214 8.383 8.877 12.049 3.664 3.666 7.829 6.737 12.045 8.883zM4.838 5.486c1.844-1.696 3.54-2.467 4.17-2.479L9.006 3c.446.078 2.184 1.311 4.79 4.693 2.239 2.907 3.438 5.264 3.454 5.87-.011.042-.113.306-.79.84-.583.46-1.383.952-2.158 1.428l-.02.012-.02.012c-1.032.635-2.096 1.29-2.867 1.988-1.458 1.32-1.411 2.481-1.115 3.221 2.47 6.17 9.769 13.464 15.942 15.931.275.11.562.167.854.167 1.807 0 3.051-2.022 4.367-4.162l.002-.002.026-.043c.474-.767.96-1.554 1.415-2.133.534-.677.798-.778.84-.79.607.014 2.965 1.215 5.874 3.452 3.384 2.604 4.621 4.34 4.697 4.787-.012.632-.784 2.334-2.484 4.185-1.613 1.758-3.365 2.851-4.571 2.851C21.434 45.307 2 25.87 2 10.057c0-1.208 1.089-2.959 2.838-4.57z"></path>
    </symbol>
    <symbol id="icon-mail" viewBox="0 0 24 24" xmlns="http://www.w3.org/2000/svg">
        <path d="M3 7.921l8.427 5.899c.34.235.795.246 1.147 0L21 7.921V18c0 .272-.11.521-.295.705S20.272 19 20 19H4c-.272 0-.521-.11-.705-.295S3 18.272 3 18zM1 5.983V18c0 .828.34 1.579.88 2.12S3.172 21 4 21h16c.828 0 1.579-.34 2.12-.88S23 18.828 23 18V6.012v-.03a2.995 2.995 0 0 0-.88-2.102A2.998 2.998 0 0 0 20 3H4c-.828 0-1.579.34-2.12.88A2.995 2.995 0 0 0 1 5.983zm19.894-.429L12 11.779 3.106 5.554a.999.999 0 0 1 .188-.259A.994.994 0 0 1 4 5h16a1.016 1.016 0 0 1 .893.554z"/>
    </symbol>
    <symbol id="icon-arrow-down" xmlns="http://www.w3.org/2000/svg" viewBox="0 0 24 24">
        <path d="M7.406 8.578l4.594 4.594 4.594-4.594 1.406 1.406-6 6-6-6z"></path>
    </symbol>
    <symbol id="icon-quote" fill="none" viewBox="0 0 36 36" xmlns="http://www.w3.org/2000/svg">
        <path d="M11.86 16.55a4.31 4.31 0 0 0-2.11.56 14.44 14.44 0 0 1 4.36-6 1.102 1.102 0 0 0-1.4-1.7c-4 3.25-5.78 7.75-5.78 10.54A5.08 5.08 0 0 0 10 24.58a4.398 4.398 0 0 0 1.88.44 4.24 4.24 0 1 0 0-8.47h-.02zM23 16.55a4.29 4.29 0 0 0-2.11.56 14.501 14.501 0 0 1 4.35-6 1.098 1.098 0 0 0 .209-1.589 1.1 1.1 0 0 0-1.599-.111c-4 3.25-5.78 7.75-5.78 10.54a5.082 5.082 0 0 0 3 4.61A4.37 4.37 0 0 0 23 25a4.24 4.24 0 1 0 0-8.47v.02z"
              fill="currentColor"/>
    </symbol>
    <symbol id="icon-star" fill="none" viewBox="0 0 22 22" xmlns="http://www.w3.org/2000/svg">
        <path d="M11 1.833l2.832 5.739 6.334.925-4.583 4.465 1.082 6.306L11 16.29l-5.665 2.98 1.081-6.307-4.583-4.465 6.334-.925L11 1.833z"
              fill="currentColor" stroke="var(--color-grey-700)" stroke-linecap="round" stroke-linejoin="round"/>
    </symbol>
    <symbol id="icon-map" viewBox="0 0 24 24" xmlns="http://www.w3.org/2000/svg">
        <path d="M22 10c0-2.761-1.12-5.263-2.929-7.071s-4.31-2.929-7.071-2.929-5.263 1.12-7.071 2.929-2.929 4.31-2.929 7.071c0 0.569 0.053 1.128 0.15 1.676 0.274 1.548 0.899 3.004 1.682 4.32 2.732 4.591 7.613 7.836 7.613 7.836 0.331 0.217 0.765 0.229 1.109 0 0 0 4.882-3.245 7.613-7.836 0.783-1.316 1.408-2.772 1.682-4.32 0.098-0.548 0.151-1.107 0.151-1.676zM20 10c0 0.444-0.041 0.887-0.119 1.328-0.221 1.25-0.737 2.478-1.432 3.646-1.912 3.214-5.036 5.747-6.369 6.74-1.398-0.916-4.588-3.477-6.53-6.74-0.695-1.168-1.211-2.396-1.432-3.646-0.077-0.441-0.118-0.884-0.118-1.328 0-2.209 0.894-4.208 2.343-5.657s3.448-2.343 5.657-2.343 4.208 0.894 5.657 2.343 2.343 3.448 2.343 5.657zM16 10c0-1.104-0.449-2.106-1.172-2.828s-1.724-1.172-2.828-1.172-2.106 0.449-2.828 1.172-1.172 1.724-1.172 2.828 0.449 2.106 1.172 2.828 1.724 1.172 2.828 1.172 2.106-0.449 2.828-1.172 1.172-1.724 1.172-2.828zM14 10c0 0.553-0.223 1.051-0.586 1.414s-0.861 0.586-1.414 0.586-1.051-0.223-1.414-0.586-0.586-0.861-0.586-1.414 0.223-1.051 0.586-1.414 0.861-0.586 1.414-0.586 1.051 0.223 1.414 0.586 0.586 0.861 0.586 1.414z"></path>
    </symbol>
    <symbol id="icon-facebook" viewBox="0 0 32 32" xmlns="http://www.w3.org/2000/svg">
        <path fill="currentColor"
              d="M16-0.034c-8.841 0-16.035 7.192-16.035 16.034s7.194 16.034 16.035 16.034 16.035-7.192 16.035-16.034-7.194-16.034-16.035-16.034zM16 30.966c-8.252 0-14.965-6.714-14.965-14.966s6.713-14.966 14.965-14.966 14.965 6.714 14.965 14.966-6.713 14.966-14.965 14.966zM19.5 7h-2.668c-3.398-0.034-3.832 2.069-3.832 4.345v1.655h-1.5c-0.295-0.034-0.535 0.205-0.5 0.5v3c-0.035 0.295 0.205 0.534 0.5 0.5h1.5v7.5c-0.031 0.295 0.208 0.534 0.503 0.5h3.055c0.295 0.034 0.534-0.205 0.44-0.5l0.002-7.5h2.5c0.295 0.034 0.535-0.205 0.5-0.5v-3c0.035-0.295-0.205-0.534-0.5-0.5h-2.503l0.003-1.5c0.097-0.639 0.097-0.535 0.69-0.5h1.789c0.139-0.031 0.287-0.014 0.391-0.115s0.164-0.239 0.129-0.385v-3c0.036-0.295-0.204-0.534-0.499-0.5zM18.965 9.944l-1.254-0.048c-1.553 0-1.683 0.843-1.683 1.706l-0.004 1.896c0 0.142 0.056 0.278 0.156 0.379s0.236 0.156 0.378 0.156h2.442v1.932h-2.44c-0.295 0-0.534 0.239-0.535 0.534l-0.001 7.501h-2.024v-7.5c0-0.295-0.201-0.534-0.497-0.534h-1.503v-1.932h1.503c0.142 0 0.278-0.056 0.378-0.156s0.118-0.237 0.118-0.379v-2.155c0-2.242 0.453-3.31 2.832-3.31h2.133v1.91z"></path>
    </symbol>
    <symbol id="icon-linkedin" fill="currentColor" viewBox="0 0 32 32" xmlns="http://www.w3.org/2000/svg">
        <path
                d="M19.515 11.952c-0.678 0-1.18 0.171-1.573 0.387-0.063-0.224-0.27-0.388-0.514-0.339h-2.984c-0.295-0.049-0.534 0.19-0.443 0.5v11c-0.091 0.28 0.148 0.52 0.443 0.5h2.984c0.295 0.020 0.534-0.22 0.534-0.515l-0.001-6.648c-0.001-0.003-0.012-0.321 0.189-0.54 0.161-0.174 0.438-0.263 0.821-0.263 0.638 0 0.922 0.261 1.028 0.845v6.606c-0.105 0.295 0.134 0.535 0.429 0.515h3.145c0.295 0.020 0.534-0.22 0.428-0.515v-6.828c0.105-3.472-2.368-4.705-4.486-4.705zM23.038 23h-2.076v-6.121c0-1.181-0.763-1.913-1.99-1.913-0.694 0-1.234 0.204-1.606 0.606-0.517 0.56-0.477 1.27-0.366 1.428v6h-2.022v-9.98h1.916v0.336c0 0.203 0.115 0.39 0.298 0.479s0.4 0.067 0.562-0.056l0.14-0.108c0.405-0.319 0.824-0.65 1.622-0.65 0.826 0 3.523 0.263 3.523 3.637v6.342zM11 6.966c-1.122 0-2.034 0.912-2.034 2.034s0.912 2.034 2.034 2.034 2.034-0.912 2.034-2.034-0.912-2.034-2.034-2.034zM11 9.966c-0.532 0-0.966-0.434-0.966-0.966s0.434-0.966 0.966-0.966 0.966 0.434 0.966 0.966-0.434 0.966-0.966 0.966zM12.428 11.951h-2.968c-0.295 0-0.534 0.239-0.46 0.549v11c-0.074 0.28 0.165 0.52 0.46 0.5h2.968c0.295 0.020 0.534-0.22 0.534-0.515v-11c0-0.295-0.239-0.534-0.534-0.534zM12 23h-2.006v-9.98h2.006v9.98zM16-0.034c-8.842 0-16.034 7.192-16.034 16.034s7.192 16.034 16.034 16.034 16.034-7.192 16.034-16.034-7.192-16.034-16.034-16.034zM16 30.966c-8.252 0-14.966-6.714-14.966-14.966s6.714-14.966 14.966-14.966 14.966 6.714 14.966 14.966-6.714 14.966-14.966 14.966z"></path>
    </symbol>
    <symbol id="icon-twitter" viewBox="0 0 32 32" xmlns="http://www.w3.org/2000/svg">
        <path fill="currentColor"
              d="M16-0.034c-8.841 0-16.035 7.192-16.035 16.034s7.194 16.034 16.035 16.034 16.035-7.192 16.035-16.034-7.194-16.034-16.035-16.034zM16 30.966c-8.252 0-14.965-6.714-14.965-14.966s6.713-14.966 14.965-14.966 14.965 6.714 14.965 14.966-6.713 14.966-14.965 14.966zM24.794 11.046c0.11-0.204 0.202-0.419 0.273-0.643 0.067-0.212-0.002-0.442-0.176-0.581-0.173-0.138-0.415-0.154-0.605-0.042-0.513 0.305-1.065 0.53-1.646 0.673-0.698-0.631-1.615-0.987-2.562-0.987-2.105 0-3.817 1.712-3.817 3.815 0 0.053 0.001 0.105 0.003 0.158-2.235-0.279-4.298-1.415-5.735-3.178-0.11-0.136-0.28-0.207-0.456-0.195-0.175 0.014-0.332 0.112-0.42 0.265-0.338 0.58-0.517 1.243-0.517 1.919 0 0.64 0.159 1.256 0.451 1.802-0.074 0.012-0.147 0.039-0.214 0.078-0.163 0.097-0.264 0.292-0.264 0.481 0 1.135 0.505 2.177 1.319 2.885-0.012 0.011-0.023 0.023-0.035 0.035-0.125 0.142-0.166 0.338-0.108 0.518 0.351 1.094 1.164 1.946 2.184 2.365-1.041 0.515-2.25 0.716-3.406 0.579-0.244-0.022-0.481 0.116-0.566 0.352-0.083 0.234 0.005 0.495 0.215 0.63 1.592 1.020 3.431 1.559 5.319 1.559 6.18 0 9.874-5.020 9.874-9.873 0-0.055 0-0.109-0.001-0.164 0.597-0.466 1.115-1.023 1.541-1.66 0.132-0.197 0.118-0.459-0.035-0.641-0.151-0.179-0.4-0.241-0.616-0.15zM23.049 12.801c-0.147 0.106-0.231 0.279-0.222 0.461 0.006 0.132 0.009 0.266 0.009 0.398 0 4.328-3.293 8.805-8.804 8.805-0.989 0-1.964-0.166-2.887-0.488 1.105-0.211 2.141-0.682 3.045-1.39 0.178-0.14 0.249-0.376 0.177-0.591-0.072-0.214-0.271-0.36-0.497-0.364-0.891-0.018-1.699-0.461-2.194-1.162 0.253-0.017 0.501-0.059 0.742-0.124 0.239-0.065 0.401-0.286 0.393-0.534s-0.186-0.457-0.429-0.506c-1.003-0.201-1.79-0.943-2.081-1.905 0.266 0.067 0.539 0.106 0.812 0.115 0.235-0.001 0.453-0.145 0.526-0.371s-0.013-0.475-0.212-0.607c-0.765-0.512-1.222-1.366-1.222-2.287 0-0.223 0.027-0.443 0.079-0.658 1.731 1.775 4.080 2.847 6.568 2.972 0.176 0.001 0.33-0.062 0.437-0.191s0.148-0.3 0.11-0.464c-0.047-0.203-0.071-0.414-0.071-0.627 0-1.515 1.233-2.747 2.748-2.747 0.757 0 1.488 0.316 2.005 0.868 0.126 0.135 0.312 0.194 0.494 0.159 0.165-0.033 0.328-0.071 0.489-0.115-0.072 0.054-0.147 0.104-0.226 0.151-0.216 0.129-0.312 0.393-0.231 0.631s0.324 0.394 0.569 0.357c0.061-0.007 0.121-0.015 0.182-0.023-0.099 0.082-0.203 0.161-0.309 0.237z"></path>
    </symbol>

    <symbol id="icon-service-1" viewBox="0 0 700 700" xmlns="http://www.w3.org/2000/svg">
        <path d="M217.56 464.02a44.8 44.8 0 0 0 44.801 44.801 44.8 44.8 0 1 0 0-89.602 44.817 44.817 0 0 0-31.68 13.121 44.816 44.816 0 0 0-13.121 31.68zm77.953 0a33.6 33.6 0 1 1-67.201 0 33.6 33.6 0 0 1 67.201 0zM430.19 464.02a44.8 44.8 0 1 0 89.602 0 44.817 44.817 0 0 0-13.121-31.68 44.816 44.816 0 0 0-31.68-13.121 44.8 44.8 0 0 0-44.801 44.801zm77.953 0a33.6 33.6 0 1 1-67.201 0 33.6 33.6 0 0 1 67.201 0zM586.43 110.38h-386.4l-9.746-58.969H113.56V62.61h67.199l51.969 316.06 286.61.004v-11.2h-277.03l-9.52-58.015H537.2zM230.88 298.2l-29.062-176.62h370.27L528.463 298.2z"/>
        <path d="M279.27 173.6h199.75v11.199H279.27zM307.27 235.2h143.75v11.199H307.27z"/>
    </symbol>
    <symbol id="icon-service-2" viewBox="0 0 700 700" xmlns="http://www.w3.org/2000/svg">
        <path d="M588 175a6.463 6.463 0 0 0-6.46-6.46c-104.22 0-192.94 77.374-225.08 184.72V129.47c89.18-2.372 160.71-53.063 160.71-115.2a6.463 6.463 0 0 0-6.462-6.462c-92.176 0-167.17 51.777-167.17 115.42v10.055c-25.262-41.648-84.87-71-154.25-71a6.463 6.463 0 0 0-6.46 6.461c0 62.145 71.542 112.84 160.71 115.2v223.81c-32.138-107.36-120.86-184.75-225.08-184.75a6.463 6.463 0 0 0-6.462 6.461c0 148.27 103.29 269.27 231.54 273.23v43.008c0 3.566 2.895 6.46 6.461 6.46s6.461-2.894 6.461-6.46v-97.492c128.25-3.96 231.54-124.96 231.54-273.22zM503.742 20.98c-5.082 51.855-68.328 93.219-146.76 95.57 5.074-51.855 68.316-93.227 146.76-95.57zm-307.48 54.473c78.445 2.344 141.68 43.715 146.77 95.57-78.445-2.352-141.68-43.723-146.77-95.57zm-71.188 160.67c119.13 4.008 215.3 115.63 218.31 253.64-119.13-3.996-215.3-115.62-218.31-253.64zm231.54 199.16c3.023-138.02 99.188-249.64 218.33-253.64-3.027 138.01-99.191 249.64-218.33 253.64z"/>
    </symbol>
    <symbol id="icon-service-3" viewBox="0 0 700 700" xmlns="http://www.w3.org/2000/svg">
        <path d="M584.15 84c-44.43 8.332-95.02 15.969-135.45 39.199-40.285 23.152-69.914 62.703-70.699 131.43-13.414 23.211-23.461 51.531-29.926 87.324-6.664-21.863-15.426-40.949-26.074-57.926-.41-70.18-27.688-107.66-66.852-129.32-39.461-21.832-90.035-28.82-138.77-42.523a5.586 5.586 0 0 0-2.8-.176 5.61 5.61 0 0 0-4.024 3.477 5.607 5.607 0 0 0 .699 5.273c28.605 41.301 44.398 85.617 64.051 120.57 9.824 17.48 20.703 32.824 35 43.75 14.293 10.926 31.934 17.324 54.25 17.324 15.516 0 30.848-3.129 50.574-10.324 12.359 20.36 21.883 44.062 28.352 72.277-28.652 2.348-54.883 18.13-68.426 44.973-24.738.606-45.973 7.239-61.074 18.027-15.797 11.281-25.375 26.81-25.375 43.047a5.598 5.598 0 0 0 5.598 5.602h313.6a5.598 5.598 0 0 0 5.597-5.602c0-16.238-9.578-31.766-25.375-43.047-15.102-10.789-36.336-17.422-61.074-18.027-13.797-27.344-40.73-43.266-70-45.148 8.247-63.645 26.922-103.53 53.027-133.53 26.445-30.387 60.805-50.867 100.62-74.723a5.601 5.601 0 0 0-3.152-10.5 5.574 5.574 0 0 0-2.45.875c-39.784 23.836-75.632 44.863-103.6 77-3.495 4.016-6.913 8.215-10.147 12.598 5.234-53.484 30.039-83.629 63.875-103.07 34.426-19.78 78.492-27.715 119.88-35.348-25.125 40.273-40.148 80.605-57.398 111.12-9.414 16.648-19.477 30.34-32.375 39.723-12.902 9.387-28.652 14.875-50.227 14.875-4.574 0-9.856-.781-15.574-1.926a5.61 5.61 0 0 0-6.563 4.465 5.612 5.612 0 0 0 4.461 6.563c6.2 1.238 12.055 2.097 17.676 2.097 23.5 0 41.918-6.218 56.7-16.973 14.784-10.754 25.874-25.848 35.698-43.227 19.648-34.758 34.672-79.117 63.352-121.45a5.596 5.596 0 0 0 .153-6.265 5.605 5.605 0 0 0-5.754-2.485zM126.7 126.176c45.086 11.707 89.676 19.871 123.03 38.324 32.926 18.219 55.488 46.703 59.848 101.68-26.473-34.254-61.508-59.07-102.55-80.852a5.594 5.594 0 0 0-2.625-.7 5.6 5.6 0 0 0-2.625 10.677c44.168 23.438 80.387 49.469 106.23 87.148-17.418 6.12-30.957 8.75-44.449 8.75-20.23 0-35.125-5.516-47.602-15.051-12.473-9.532-22.574-23.438-32.023-40.25-17.164-30.527-32.453-70.578-57.227-109.72zM350 375.196c28.785 0 55.566 14.535 67.727 41.477a5.593 5.593 0 0 0 5.074 3.324c24.164 0 43.97 6.73 57.574 16.45 11.441 8.171 17.176 18.347 19.074 28.351h-298.9c1.899-10.004 7.633-20.18 19.074-28.352 13.605-9.719 33.41-16.449 57.574-16.449a5.593 5.593 0 0 0 5.074-3.324c12.16-26.941 38.941-41.477 67.727-41.477z"/>
    </symbol>
    <symbol id="icon-service-4" viewBox="0 0 700 700" xmlns="http://www.w3.org/2000/svg">
        <path d="M394.8 488.15h-86.242a26.153 26.153 0 0 0-26.153 26.094c.008 2.984.54 5.941 1.57 8.738A25.981 25.981 0 0 0 294 535.806a25.697 25.697 0 0 0 14.785 4.59H394.8c3.867.062 7.699-.762 11.199-2.407a25.711 25.711 0 0 0 11.762-10.863 25.344 25.344 0 0 0 3.468-12.883 26.141 26.141 0 0 0-7.777-18.555 26.164 26.164 0 0 0-18.652-7.539zm13.777 26.098l-.004-.004a13.835 13.835 0 0 1-5.598 11.203 13.58 13.58 0 0 1-8.066 2.574h-86.352a13.66 13.66 0 0 1-13.773-13.777 12.343 12.343 0 0 1 0-2.52 13.777 13.777 0 0 1 13.55-11.199H394.8c7.52 0 13.652 6.032 13.773 13.551z"/>
        <path d="M405.33 500.53H298.09a6.214 6.214 0 0 1-6.16-6.215v-1.512c0-45.359-17.137-90.16-49.56-129.53h-.003a120.23 120.23 0 0 1-27.215-89.602c6.441-59.023 57.344-106.4 120.96-113.01a144.143 144.143 0 0 1 111.5 35.281 121.745 121.745 0 0 1 41.383 90.887 119.61 119.61 0 0 1-29.008 78.008 199.786 199.786 0 0 0-48.383 127.96v1.625a6.217 6.217 0 0 1-6.274 6.102zm-101.14-12.375h95.199a212.81 212.81 0 0 1 51.41-131.66 107.53 107.53 0 0 0 26.094-70.055 109.268 109.268 0 0 0-37.293-81.707 131.94 131.94 0 0 0-101.92-32.199c-58.184 5.938-104.44 48.832-110.21 101.86a107.588 107.588 0 0 0 24.414 80.641c33.211 40.547 51.242 86.41 52.305 133.11z"/>
        <path d="M354.93 493.19h-6.441a6.213 6.213 0 0 1-6.106-5.152l-8.734-53.312a92.976 92.976 0 0 0-28-50.398 17.267 17.267 0 0 1-5.602-12.375c0-16.801 26.77-26.04 51.97-26.04s51.968 9.13 51.968 26.04a17.14 17.14 0 0 1-5.602 12.375 92.858 92.858 0 0 0-28 50.398l-9.183 53.312a6.21 6.21 0 0 1-6.27 5.152zm-3.195-134.79c-23.801 0-39.594 8.176-39.594 13.664h.004a5.588 5.588 0 0 0 2.015 3.586 104.68 104.68 0 0 1 31.641 57.289l5.938 35.84 5.601-35.84h-.004A105.103 105.103 0 0 1 389.2 375.2a5.603 5.603 0 0 0 2.016-3.527c.113-5.32-15.68-13.273-39.48-13.273zM351.73 137.26a6.218 6.218 0 0 1-6.215-6.219V25.761a6.218 6.218 0 0 1 6.188-5.629 6.213 6.213 0 0 1 6.187 5.63v105.28a6.215 6.215 0 0 1-6.16 6.218zM460.32 171.25a5.984 5.984 0 0 1-4.367-1.848c-1.18-1.148-1.84-2.722-1.84-4.367s.66-3.219 1.84-4.367l65.633-65.465a6.105 6.105 0 0 1 8.734 0 6.16 6.16 0 0 1 0 8.738l-65.633 65.461a6.152 6.152 0 0 1-4.367 1.848zM597.13 280.79H512.4a6.16 6.16 0 1 1 0-12.32h84.73a6.16 6.16 0 1 1 0 12.32zM187.6 277.37h-84.73a6.218 6.218 0 0 1-5.625-6.188 6.218 6.218 0 0 1 5.625-6.187h84.73a6.218 6.218 0 0 1 5.625 6.188 6.218 6.218 0 0 1-5.625 6.187zM245.17 171.81a6.215 6.215 0 0 1-4.367-1.793l-68.711-68.711a6.177 6.177 0 1 1 8.734-8.738l68.711 68.715a6.15 6.15 0 0 1 1.817 4.367c0 1.64-.653 3.21-1.817 4.367a6.315 6.315 0 0 1-4.367 1.793z"/>
    </symbol>
    <symbol id="icon-service-5" viewBox="0 0 700 700" xmlns="http://www.w3.org/2000/svg">
        <path d="M242.55 39.227a5.594 5.594 0 0 0-4.55 5.598v29.223c-8.712 2.093-17.97 4.648-26.603 8.925L191.624 63.2a5.603 5.603 0 0 0-8.05 0l-39.2 39.2v-.004a5.603 5.603 0 0 0-.351 7.527L164.5 135.47c-3.781 6.918-6.453 13.727-8.574 21.348H126v.004a5.598 5.598 0 0 0-5.602 5.597v55.996a5.601 5.601 0 0 0 5.602 5.602h29.227c2.074 8.633 4.886 17.867 9.101 26.422l-19.949 19.95h-.004a5.602 5.602 0 0 0 0 7.874l39.2 39.2a5.603 5.603 0 0 0 8.05 0l19.773-19.774c8.633 4.277 17.887 7.004 26.602 9.098v29.223a5.601 5.601 0 0 0 5.602 5.601h56a5.6 5.6 0 0 0 5.597-5.601v-29.223c8.711-2.094 17.965-4.82 26.602-9.098l19.773 19.773a5.603 5.603 0 0 0 8.05 0l39.2-39.199a5.602 5.602 0 0 0 0-7.875l-19.949-19.949c4.211-8.559 7.024-17.789 9.102-26.422h29.227-.004a5.601 5.601 0 0 0 5.601-5.602V162.42a5.598 5.598 0 0 0-5.601-5.597h-29.926c-2.121-7.625-4.793-14.434-8.574-21.348l20.477-25.547v-.004a5.603 5.603 0 0 0-.352-7.527l-39.199-39.2v.004a5.603 5.603 0 0 0-8.05 0l-19.774 19.773c-8.629-4.277-17.89-6.832-26.602-8.925V44.825a5.597 5.597 0 0 0-5.597-5.598h-56a5.248 5.248 0 0 0-1.051 0zm6.648 11.199h44.797v28l.004-.004a5.604 5.604 0 0 0 4.2 5.426c11.277 2.808 23.89 5.504 32.199 10.5a5.605 5.605 0 0 0 6.828-.875L355.6 75.098l31.676 31.672-19.25 24.148-.004.004a5.597 5.597 0 0 0-.348 6.297c5.496 9.136 7.8 15.574 10.5 26.422v.004a5.6 5.6 0 0 0 5.426 4.375h28v44.797h-28a5.6 5.6 0 0 0-5.426 4.199c-2.809 11.277-5.504 23.715-10.5 32.023a5.599 5.599 0 0 0 .7 6.824l18.374 18.551-31.148 31.148-18.375-18.375a5.605 5.605 0 0 0-6.828-.875c-8.308 4.996-20.926 7.867-32.199 10.676A5.596 5.596 0 0 0 294 302.41v28h-44.797v-28h-.004a5.596 5.596 0 0 0-4.2-5.422c-11.276-2.809-23.89-5.68-32.198-10.676a5.599 5.599 0 0 0-6.824.875l-18.375 18.375-31.148-31.148 18.375-18.551h-.004a5.599 5.599 0 0 0 .699-6.824c-4.996-8.309-7.691-20.746-10.5-32.023a5.596 5.596 0 0 0-5.422-4.2h-28V168.02h28a5.599 5.599 0 0 0 5.422-4.375c2.7-10.848 5.004-17.285 10.5-26.422v-.004a5.597 5.597 0 0 0-.348-6.297l-19.25-24.148 31.676-31.672 18.375 18.375v-.004a5.599 5.599 0 0 0 6.825.875c8.308-4.996 20.926-7.692 32.199-10.5a5.604 5.604 0 0 0 4.199-5.426v-28zm22.398 78.395c-33.953 0-61.602 27.645-61.602 61.598s27.645 61.598 61.602 61.598c33.953 0 61.602-27.645 61.602-61.598s-27.645-61.598-61.602-61.598zm0 11.199c27.902 0 50.398 22.496 50.398 50.398 0 27.898-22.5 50.398-50.398 50.398-27.902 0-50.398-22.496-50.398-50.398 0-27.898 22.5-50.398 50.398-50.398zm207.2 190.39c-30.863 0-56 25.137-56 55.996 0 20.582 11.223 38.574 27.824 48.297-41.64 10.102-72.62 41.852-72.62 80.496a5.601 5.601 0 0 0 5.601 5.602h190.4a5.601 5.601 0 0 0 5.602-5.602c0-38.645-30.98-70.395-72.625-80.496 16.602-9.727 27.824-27.715 27.824-48.297 0-30.859-25.137-55.996-56-55.996zm0 11.199c24.81 0 44.801 19.992 44.801 44.797 0 24.809-19.992 44.797-44.8 44.797s-44.802-19.992-44.802-44.797c0-24.809 19.992-44.797 44.801-44.797zm0 100.8c47.672 0 85.336 30.137 88.898 67.195h-177.8c3.563-37.059 41.23-67.195 88.898-67.195z"/>
    </symbol>
</svg>